# MagicaVoxel @ Ephtracy

# material
mtllib Damon3.mtl
usemtl palette

# normals
vn -1 0 0
vn 1 0 0
vn 0 0 1
vn 0 0 -1
vn 0 -1 0
vn 0 1 0

# texcoords
vt 0.970703 0.5
vt 0.974609 0.5
vt 0.978516 0.5
vt 0.986328 0.5

# verts
v -6 5 0.5
v -6 5 -0.5
v -6 6 0.5
v -6 6 -0.5
v -4 8 0.5
v -4 8 -1.5
v -4 10 0.5
v -4 10 -1.5
v -3 6 2.5
v -3 6 0.5
v -3 6 -0.5
v -3 6 -2.5
v -3 8 2.5
v -3 8 1.5
v -3 8 0.5
v -3 8 -1.5
v -3 10 2.5
v -3 10 1.5
v -3 10 0.5
v -3 10 -1.5
v -3 12 2.5
v -3 12 -2.5
v -2 0 0.5
v -2 0 -0.5
v -2 2 1.5
v -2 2 0.5
v -2 2 -0.5
v -2 2 -1.5
v -2 5 0.5
v -2 5 -0.5
v -2 6 1.5
v -2 6 0.5
v -2 6 -0.5
v -2 6 -1.5
v -1 3 -1.5
v -1 3 -2.5
v -1 6 -1.5
v -1 6 -2.5
v 1 0 0.5
v 1 0 -0.5
v 1 2 0.5
v 1 2 -0.5
v -1 0 0.5
v -1 0 -0.5
v -1 2 0.5
v -1 2 -0.5
v 1 3 -1.5
v 1 3 -2.5
v 1 6 -1.5
v 1 6 -2.5
v 2 0 0.5
v 2 0 -0.5
v 2 2 1.5
v 2 2 0.5
v 2 2 -0.5
v 2 2 -1.5
v 2 5 0.5
v 2 5 -0.5
v 2 6 1.5
v 2 6 0.5
v 2 6 -0.5
v 2 6 -1.5
v 3 6 2.5
v 3 6 0.5
v 3 6 -0.5
v 3 6 -2.5
v 3 8 2.5
v 3 8 1.5
v 3 8 0.5
v 3 8 -1.5
v 3 10 2.5
v 3 10 1.5
v 3 10 0.5
v 3 10 -0.5
v 3 10 -1.5
v 3 12 2.5
v 3 12 -0.5
v 3 12 -1.5
v 3 12 -2.5
v 4 8 0.5
v 4 8 -1.5
v 4 10 0.5
v 4 10 -0.5
v 4 10 -1.5
v 4 12 -0.5
v 4 12 -1.5
v 6 5 0.5
v 6 5 -0.5
v 6 6 0.5
v 6 6 -0.5
v -3 6 2.5
v -3 8 2.5
v -3 10 2.5
v -3 12 2.5
v -2 7 2.5
v -2 8 2.5
v 2 7 2.5
v 2 8 2.5
v 3 6 2.5
v 3 8 2.5
v 3 10 2.5
v 3 12 2.5
v -2 2 1.5
v -2 6 1.5
v 0 4 1.5
v 0 5 1.5
v 1 4 1.5
v 1 5 1.5
v 2 2 1.5
v 2 6 1.5
v -6 5 0.5
v -6 6 0.5
v -5 5 0.5
v -5 6 0.5
v -4 8 0.5
v -4 10 0.5
v -3 6 0.5
v -3 8 0.5
v -3 10 0.5
v -2 0 0.5
v -2 2 0.5
v -2 5 0.5
v -2 6 0.5
v -1 0 0.5
v -1 2 0.5
v 1 0 0.5
v 1 2 0.5
v 2 0 0.5
v 2 2 0.5
v 2 5 0.5
v 2 6 0.5
v 3 6 0.5
v 3 8 0.5
v 3 10 0.5
v 4 8 0.5
v 4 10 0.5
v 5 5 0.5
v 5 6 0.5
v 6 5 0.5
v 6 6 0.5
v 3 10 -0.5
v 3 12 -0.5
v 4 10 -0.5
v 4 12 -0.5
v -6 5 -0.5
v -6 6 -0.5
v -5 5 -0.5
v -5 6 -0.5
v -3 6 -0.5
v -2 0 -0.5
v -2 2 -0.5
v -2 5 -0.5
v -2 6 -0.5
v -1 0 -0.5
v -1 2 -0.5
v 1 0 -0.5
v 1 2 -0.5
v 2 0 -0.5
v 2 2 -0.5
v 2 5 -0.5
v 2 6 -0.5
v 3 6 -0.5
v 5 5 -0.5
v 5 6 -0.5
v 6 5 -0.5
v 6 6 -0.5
v -4 8 -1.5
v -4 10 -1.5
v -3 8 -1.5
v -3 10 -1.5
v -2 2 -1.5
v -2 6 -1.5
v -1 3 -1.5
v -1 6 -1.5
v 1 3 -1.5
v 1 6 -1.5
v 2 2 -1.5
v 2 6 -1.5
v 3 8 -1.5
v 3 10 -1.5
v 3 12 -1.5
v 4 8 -1.5
v 4 10 -1.5
v 4 12 -1.5
v -3 6 -2.5
v -3 12 -2.5
v -1 3 -2.5
v -1 6 -2.5
v 1 3 -2.5
v 1 6 -2.5
v 3 6 -2.5
v 3 12 -2.5
v -2 0 0.5
v -1 0 0.5
v 1 0 0.5
v 2 0 0.5
v -2 0 -0.5
v -1 0 -0.5
v 1 0 -0.5
v 2 0 -0.5
v -2 2 1.5
v 2 2 1.5
v -2 2 0.5
v -1 2 0.5
v 1 2 0.5
v 2 2 0.5
v -2 2 -0.5
v -1 2 -0.5
v 1 2 -0.5
v 2 2 -0.5
v -2 2 -1.5
v 2 2 -1.5
v -1 3 -1.5
v 1 3 -1.5
v -1 3 -2.5
v 1 3 -2.5
v -6 5 0.5
v -5 5 0.5
v -2 5 0.5
v 2 5 0.5
v 5 5 0.5
v 6 5 0.5
v -6 5 -0.5
v -5 5 -0.5
v -2 5 -0.5
v 2 5 -0.5
v 5 5 -0.5
v 6 5 -0.5
v -3 6 2.5
v 3 6 2.5
v -2 6 1.5
v 2 6 1.5
v -3 6 0.5
v -2 6 0.5
v 2 6 0.5
v 3 6 0.5
v -3 6 -0.5
v -2 6 -0.5
v 2 6 -0.5
v 3 6 -0.5
v -2 6 -1.5
v -1 6 -1.5
v 1 6 -1.5
v 2 6 -1.5
v -3 6 -2.5
v -1 6 -2.5
v 1 6 -2.5
v 3 6 -2.5
v -4 8 0.5
v -3 8 0.5
v 3 8 0.5
v 4 8 0.5
v -4 8 -1.5
v -3 8 -1.5
v 3 8 -1.5
v 4 8 -1.5
v -6 6 0.5
v -5 6 0.5
v -3 6 0.5
v 3 6 0.5
v 5 6 0.5
v 6 6 0.5
v -6 6 -0.5
v -5 6 -0.5
v -3 6 -0.5
v 3 6 -0.5
v 5 6 -0.5
v 6 6 -0.5
v -4 10 0.5
v -3 10 0.5
v 3 10 0.5
v 4 10 0.5
v 3 10 -0.5
v 4 10 -0.5
v -4 10 -1.5
v -3 10 -1.5
v -3 12 2.5
v 3 12 2.5
v 3 12 -0.5
v 4 12 -0.5
v 3 12 -1.5
v 4 12 -1.5
v -3 12 -2.5
v 3 12 -2.5

# faces
f 3/1/1 2/1/1 1/1/1
f 4/1/1 2/1/1 3/1/1
f 7/3/1 6/3/1 5/3/1
f 8/3/1 6/3/1 7/3/1
f 13/2/1 10/2/1 9/2/1
f 13/2/1 12/2/1 11/2/1
f 13/2/1 11/2/1 10/2/1
f 14/2/1 12/2/1 13/2/1
f 15/2/1 12/2/1 14/2/1
f 16/2/1 12/2/1 15/2/1
f 17/1/1 14/1/1 13/1/1
f 18/2/1 15/2/1 14/2/1
f 18/1/1 14/1/1 17/1/1
f 19/2/1 15/2/1 18/2/1
f 20/2/1 12/2/1 16/2/1
f 21/2/1 19/2/1 18/2/1
f 21/2/1 20/2/1 19/2/1
f 21/2/1 18/2/1 17/2/1
f 22/2/1 12/2/1 20/2/1
f 22/2/1 20/2/1 21/2/1
f 26/1/1 24/1/1 23/1/1
f 27/1/1 24/1/1 26/1/1
f 29/2/1 26/2/1 25/2/1
f 29/2/1 28/2/1 27/2/1
f 29/2/1 27/2/1 26/2/1
f 30/2/1 28/2/1 29/2/1
f 31/2/1 29/2/1 25/2/1
f 32/2/1 29/2/1 31/2/1
f 33/2/1 28/2/1 30/2/1
f 34/2/1 28/2/1 33/2/1
f 37/4/1 36/4/1 35/4/1
f 38/4/1 36/4/1 37/4/1
f 41/1/1 40/1/1 39/1/1
f 42/1/1 40/1/1 41/1/1
f 43/1/2 44/1/2 45/1/2
f 45/1/2 44/1/2 46/1/2
f 47/4/2 48/4/2 49/4/2
f 49/4/2 48/4/2 50/4/2
f 51/1/2 52/1/2 54/1/2
f 54/1/2 52/1/2 55/1/2
f 53/2/2 54/2/2 57/2/2
f 55/2/2 56/2/2 57/2/2
f 54/2/2 55/2/2 57/2/2
f 57/2/2 56/2/2 58/2/2
f 53/2/2 57/2/2 59/2/2
f 59/2/2 57/2/2 60/2/2
f 58/2/2 56/2/2 61/2/2
f 61/2/2 56/2/2 62/2/2
f 63/2/2 64/2/2 67/2/2
f 65/2/2 66/2/2 67/2/2
f 64/2/2 65/2/2 67/2/2
f 67/2/2 66/2/2 68/2/2
f 68/2/2 66/2/2 69/2/2
f 69/2/2 66/2/2 70/2/2
f 67/1/2 68/1/2 71/1/2
f 68/2/2 69/2/2 72/2/2
f 71/1/2 68/1/2 72/1/2
f 72/2/2 69/2/2 73/2/2
f 70/2/2 66/2/2 75/2/2
f 73/2/2 74/2/2 76/2/2
f 71/2/2 72/2/2 76/2/2
f 72/2/2 73/2/2 76/2/2
f 76/2/2 74/2/2 77/2/2
f 75/2/2 66/2/2 78/2/2
f 78/2/2 66/2/2 79/2/2
f 80/3/2 81/3/2 82/3/2
f 82/3/2 81/3/2 83/3/2
f 83/3/2 81/3/2 84/3/2
f 83/1/2 84/1/2 85/1/2
f 85/1/2 84/1/2 86/1/2
f 87/1/2 88/1/2 89/1/2
f 89/1/2 88/1/2 90/1/2
f 95/2/3 92/2/3 91/2/3
f 96/1/3 93/1/3 92/1/3
f 96/2/3 92/2/3 95/2/3
f 97/2/3 95/2/3 91/2/3
f 97/1/3 96/1/3 95/1/3
f 98/1/3 93/1/3 96/1/3
f 98/1/3 96/1/3 97/1/3
f 99/2/3 97/2/3 91/2/3
f 99/2/3 98/2/3 97/2/3
f 100/1/3 93/1/3 98/1/3
f 100/2/3 98/2/3 99/2/3
f 101/2/3 94/2/3 93/2/3
f 101/1/3 93/1/3 100/1/3
f 102/2/3 94/2/3 101/2/3
f 105/2/3 104/2/3 103/2/3
f 106/2/3 104/2/3 105/2/3
f 107/2/3 105/2/3 103/2/3
f 107/3/3 106/3/3 105/3/3
f 108/2/3 104/2/3 106/2/3
f 108/3/3 106/3/3 107/3/3
f 109/2/3 107/2/3 103/2/3
f 109/2/3 108/2/3 107/2/3
f 110/2/3 104/2/3 108/2/3
f 110/2/3 108/2/3 109/2/3
f 113/1/3 112/1/3 111/1/3
f 114/1/3 112/1/3 113/1/3
f 117/3/3 114/3/3 113/3/3
f 118/3/3 116/3/3 115/3/3
f 119/3/3 116/3/3 118/3/3
f 122/3/3 117/3/3 113/3/3
f 123/3/3 117/3/3 122/3/3
f 124/1/3 121/1/3 120/1/3
f 125/1/3 121/1/3 124/1/3
f 128/1/3 127/1/3 126/1/3
f 129/1/3 127/1/3 128/1/3
f 132/3/3 131/3/3 130/3/3
f 135/3/3 134/3/3 133/3/3
f 136/3/3 134/3/3 135/3/3
f 137/3/3 132/3/3 130/3/3
f 138/3/3 132/3/3 137/3/3
f 139/1/3 138/1/3 137/1/3
f 140/1/3 138/1/3 139/1/3
f 143/1/3 142/1/3 141/1/3
f 144/1/3 142/1/3 143/1/3
f 145/1/4 146/1/4 147/1/4
f 147/1/4 146/1/4 148/1/4
f 147/3/4 148/3/4 149/3/4
f 147/3/4 149/3/4 152/3/4
f 152/3/4 149/3/4 153/3/4
f 150/1/4 151/1/4 154/1/4
f 154/1/4 151/1/4 155/1/4
f 156/1/4 157/1/4 158/1/4
f 158/1/4 157/1/4 159/1/4
f 160/3/4 161/3/4 162/3/4
f 160/3/4 162/3/4 163/3/4
f 163/3/4 162/3/4 164/3/4
f 163/1/4 164/1/4 165/1/4
f 165/1/4 164/1/4 166/1/4
f 167/3/4 168/3/4 169/3/4
f 169/3/4 168/3/4 170/3/4
f 171/2/4 172/2/4 173/2/4
f 173/2/4 172/2/4 174/2/4
f 171/2/4 173/2/4 175/2/4
f 171/2/4 175/2/4 177/2/4
f 175/2/4 176/2/4 177/2/4
f 177/2/4 176/2/4 178/2/4
f 179/3/4 180/3/4 182/3/4
f 180/1/4 181/1/4 183/1/4
f 182/3/4 180/3/4 183/3/4
f 183/1/4 181/1/4 184/1/4
f 185/2/4 186/2/4 188/2/4
f 187/4/4 188/4/4 189/4/4
f 188/2/4 186/2/4 190/2/4
f 189/4/4 188/4/4 190/4/4
f 190/2/4 186/2/4 191/2/4
f 191/2/4 186/2/4 192/2/4
f 197/1/5 194/1/5 193/1/5
f 198/1/5 194/1/5 197/1/5
f 199/1/5 196/1/5 195/1/5
f 200/1/5 196/1/5 199/1/5
f 203/2/5 202/2/5 201/2/5
f 204/2/5 202/2/5 203/2/5
f 205/2/5 202/2/5 204/2/5
f 206/2/5 202/2/5 205/2/5
f 208/2/5 205/2/5 204/2/5
f 209/2/5 205/2/5 208/2/5
f 211/2/5 208/2/5 207/2/5
f 211/2/5 210/2/5 209/2/5
f 211/2/5 209/2/5 208/2/5
f 212/2/5 210/2/5 211/2/5
f 215/4/5 214/4/5 213/4/5
f 216/4/5 214/4/5 215/4/5
f 223/1/5 218/1/5 217/1/5
f 224/3/5 219/3/5 218/3/5
f 224/1/5 218/1/5 223/1/5
f 225/3/5 219/3/5 224/3/5
f 226/3/5 221/3/5 220/3/5
f 227/1/5 222/1/5 221/1/5
f 227/3/5 221/3/5 226/3/5
f 228/1/5 222/1/5 227/1/5
f 231/2/5 230/2/5 229/2/5
f 232/2/5 230/2/5 231/2/5
f 233/2/5 231/2/5 229/2/5
f 234/2/5 231/2/5 233/2/5
f 235/2/5 230/2/5 232/2/5
f 236/2/5 230/2/5 235/2/5
f 241/2/5 238/2/5 237/2/5
f 244/2/5 240/2/5 239/2/5
f 245/2/5 242/2/5 241/2/5
f 245/2/5 241/2/5 237/2/5
f 246/2/5 242/2/5 245/2/5
f 247/2/5 244/2/5 243/2/5
f 248/2/5 240/2/5 244/2/5
f 248/2/5 244/2/5 247/2/5
f 253/3/5 250/3/5 249/3/5
f 254/3/5 250/3/5 253/3/5
f 255/3/5 252/3/5 251/3/5
f 256/3/5 252/3/5 255/3/5
f 257/1/6 258/1/6 263/1/6
f 258/3/6 259/3/6 264/3/6
f 263/1/6 258/1/6 264/1/6
f 264/3/6 259/3/6 265/3/6
f 260/3/6 261/3/6 266/3/6
f 261/1/6 262/1/6 267/1/6
f 266/3/6 261/3/6 267/3/6
f 267/1/6 262/1/6 268/1/6
f 271/3/6 272/3/6 273/3/6
f 273/3/6 272/3/6 274/3/6
f 269/3/6 270/3/6 275/3/6
f 275/3/6 270/3/6 276/3/6
f 277/2/6 278/2/6 279/2/6
f 277/2/6 279/2/6 281/2/6
f 279/1/6 280/1/6 281/1/6
f 281/1/6 280/1/6 282/1/6
f 277/2/6 281/2/6 283/2/6
f 283/2/6 281/2/6 284/2/6
